PathFileType	4	(X/Y/Z)	C:\Users\Basilio\Documents\Thesis Gigler\squatting_fais\c3dfiles\077\SJ_pre1\markers_experimental.trc
DataRate	CameraRate	NumFrames	NumMarkers	Units	OrigDataRate	OrigDataStartFrame	OrigNumFrames
200.000000	200.000000	4	60	mm	200.000000	975	1561
Frame#	Time	FHD			LBHD			RBHD			C7			T10			CLAV			LSHO			LUUPA			LMUPA			LDUPA			LLEP			LMEP			LRAD			LUL			LRFIN			RSHO			RUPA1			RMUPA			RDUPA			RLEP			RMEP			RRAD			RUL			RUFIN			LASI			RASI			USACR			LSACR			RSACR			LTHI1			LTHI2			LTHI3			LTHI4			LLFC			LMFC			LTIB1			LTIB2			LTIB3			LTIB4			LLMAL			LHEE			LMT1			LMT2			LMT5			RTHI			RTHI2			RTHI3			RTHI4			RLFC			RMFC			RTIB1			RTIB2			RTIB3			RTIB4			RLMAL			RMMAL			RHEE			RMT1			RMT2			RMT5			
		X1	Y1	Z1	X2	Y2	Z2	X3	Y3	Z3	X4	Y4	Z4	X5	Y5	Z5	X6	Y6	Z6	X7	Y7	Z7	X8	Y8	Z8	X9	Y9	Z9	X10	Y10	Z10	X11	Y11	Z11	X12	Y12	Z12	X13	Y13	Z13	X14	Y14	Z14	X15	Y15	Z15	X16	Y16	Z16	X17	Y17	Z17	X18	Y18	Z18	X19	Y19	Z19	X20	Y20	Z20	X21	Y21	Z21	X22	Y22	Z22	X23	Y23	Z23	X24	Y24	Z24	X25	Y25	Z25	X26	Y26	Z26	X27	Y27	Z27	X28	Y28	Z28	X29	Y29	Z29	X30	Y30	Z30	X31	Y31	Z31	X32	Y32	Z32	X33	Y33	Z33	X34	Y34	Z34	X35	Y35	Z35	X36	Y36	Z36	X37	Y37	Z37	X38	Y38	Z38	X39	Y39	Z39	X40	Y40	Z40	X41	Y41	Z41	X42	Y42	Z42	X43	Y43	Z43	X44	Y44	Z44	X45	Y45	Z45	X46	Y46	Z46	X47	Y47	Z47	X48	Y48	Z48	X49	Y49	Z49	X50	Y50	Z50	X51	Y51	Z51	X52	Y52	Z52	X53	Y53	Z53	X54	Y54	Z54	X55	Y55	Z55	X56	Y56	Z56	X57	Y57	Z57	X58	Y58	Z58	X59	Y59	Z59	X60	Y60	Z60	

976	4.875	9.50226402282715	1679.30029296875	-878.5847167968752	-130.7163848876953	1573.314453125	-952.889099121094	-139.3599853515625	1564.637329101563	-808.1382446289065	-190.4595031738282	1483.130859375	-888.9794921875002	-338.8816223144532	1174.101928710938	-890.956970214844	-44.89792633056641	1375.9912109375	-886.0541992187502	-56.45493698120119	1442.07080078125	-1059.506713867188	-124.8387832641602	1340.445556640625	-1248.480102539063	-110.5893325805664	1292.011962890625	-1249.813232421875	-146.0720672607422	1298.710693359375	-1298.504150390625	-167.6662292480469	1238.363647460938	-1333.326293945313	-251.5017242431641	1257.683227539063	-1316.938720703125	-291.4510803222657	1047.0576171875	-1116.25732421875	nan	nan	nan	-268.4174804687501	990.0601196289065	-1169.983764648438	-24.24113655090333	1433.1669921875	-721.0040283203126	-101.0755157470703	1312.83984375	-535.0672607421876	-100.564567565918	1264.473754882813	-547.3177490234376	-131.0240936279297	1262.15625	-496.3045043945314	-162.900863647461	1200.92431640625	-473.2075500488282	-245.4964294433594	1233.856689453125	-479.5389404296876	-319.5152587890626	1020.86083984375	-653.7207641601564	-275.5882568359376	963.873229980469	-621.1033935546876	-278.1206054687501	1005.051879882813	-708.8348999023439	nan	nan	nan	nan	nan	nan	-394.3959350585939	1094.2919921875	-893.9678955078127	-414.6918945312501	1074.943725585938	-924.0219726562502	-421.3975524902345	1070.22802734375	-869.1553955078127	-289.6680908203126	788.5684814453127	-1133.581298828125	-229.0404815673829	731.8670654296876	-1153.712158203125	-184.9549255371094	749.0660400390626	-1144.934814453125	-234.6154479980469	670.9221801757814	-1156.456176757813	-151.2270812988282	539.9829101562501	-1168.672119140625	-137.5879669189453	492.3446044921876	-1049.132202148438	-189.808578491211	308.5566406250001	-1141.153198242188	-238.2464904785157	292.7885131835938	-1214.222900390625	-210.3028411865235	272.7772827148438	-1183.32568359375	-251.5762939453126	200.9099578857422	-1163.905151367188	-356.4974670410157	125.451644897461	-1222.677124023438	-422.2671813964845	78.59621429443361	-1174.740844726563	-206.0850830078126	54.49658966064455	-1177.834838867188	-210.2131958007813	58.61437606811525	-1219.692138671875	-324.7858276367188	116.1327514648438	-1137.021728515625	-264.1598510742188	680.3107299804689	-637.3925170898439	-202.6951599121094	649.6962280273439	-619.6061401367189	-171.9220428466797	664.5738525390626	-623.6773681640626	-193.9520416259766	567.8256225585939	-625.4995727539064	-175.212142944336	506.8433837890626	-613.4590454101564	-133.5630645751953	478.4296875000001	-730.7065429687501	-169.8371887207032	362.8401489257813	-620.3754882812501	-265.4410095214844	319.5638732910157	-597.9053955078126	-225.8294219970704	296.9039001464844	-608.8639526367189	-237.0539245605469	253.0642395019532	-649.7773437500001	-382.8117370605469	122.986930847168	-614.6571655273439	-343.3054809570313	111.6983795166016	-699.1241455078126	-447.6726379394532	82.89696502685548	-677.5737915039064	-230.1665191650391	55.48283004760744	-613.6490478515626	-243.0700073242188	58.72907638549806	-579.5160522460939	-273.2676391601563	42.91273498535157	-536.4533691406251	
977	4.88	8.218367576599123	1690.731201171875	-878.1358032226565	-132.4034729003907	1585.536987304688	-952.4257812500002	-141.1914825439453	1576.791015625	-807.8713989257815	-192.9663543701172	1494.707153320313	-889.1372070312502	-338.9450683593751	1182.776733398438	-890.7674560546877	-46.42245483398438	1389.073852539063	-885.6492919921877	-58.95813369750978	1455.485107421875	-1059.254516601563	-125.4753341674805	1352.987548828125	-1248.049682617188	-111.5624923706055	1304.642578125	-1249.015869140625	-146.6925506591797	1311.147094726563	-1298.114501953125	-168.1751861572266	1250.265991210938	-1332.354736328125	-252.3964385986329	1269.118896484375	-1316.251953125	-288.9890441894532	1057.227783203125	-1115.693481445313	nan	nan	nan	-265.3697814941407	1000.579467773438	-1169.8486328125	-26.66701889038087	1447.700073242188	-721.1774291992189	-102.5260925292969	1326.30615234375	-535.1617431640626	-101.3933639526367	1278.149169921875	-547.3439331054689	-131.98779296875	1275.687133789063	-496.4252014160157	-163.338623046875	1214.09423828125	-473.3064270019532	-246.4705352783204	1246.130737304688	-480.0339965820314	-316.9217529296876	1031.581665039063	-653.8976440429689	-272.7440185546876	975.163024902344	-620.5091552734376	-275.1837768554688	1015.602600097656	-709.0537109375001	nan	nan	nan	nan	nan	nan	-392.999725341797	1101.95361328125	-893.9394531250002	-412.6958923339845	1082.147583007813	-924.0659179687502	-419.3080139160157	1077.334594726563	-869.1944580078127	-288.5517578125001	794.539733886719	-1133.06298828125	-229.4362335205079	736.4015502929689	-1153.516357421875	-185.7110748291016	752.9912109375001	-1145.476196289063	-236.4597320556641	675.5846557617189	-1155.530883789063	-155.0819702148438	543.2005615234376	-1167.84814453125	-140.8137359619141	495.5096130371095	-1048.446899414063	-192.0989990234376	311.7080688476563	-1140.750854492188	-239.9186553955079	295.3419189453126	-1213.708740234375	-211.7583923339844	275.6249389648438	-1182.751586914063	-251.9071807861329	203.0403137207032	-1163.661254882813	-356.5779724121094	126.8900299072266	-1222.7998046875	-421.8126831054689	80.26360321044923	-1174.955322265625	-205.7503967285157	54.4314651489258	-1177.9208984375	-209.815170288086	58.55232620239259	-1219.671630859375	-324.4118347167969	117.5934295654297	-1137.218627929688	-265.2648315429688	685.3002319335939	-637.9232177734376	-204.4586334228516	653.3975219726564	-620.0162353515626	-173.5533447265625	667.9119262695314	-623.3029174804689	-197.1309814453126	571.8505249023439	-625.7322387695314	-178.7296295166016	510.2718505859376	-613.3682861328126	-136.1649322509766	481.8541870117189	-730.1951904296876	-172.2047119140625	366.0523986816407	-620.3437500000001	-267.4012451171876	321.8026428222657	-597.5107421875001	-227.6087493896485	299.1587829589844	-608.4556274414064	-238.0379486083985	255.2489318847657	-649.4321899414064	-382.3604125976563	124.319206237793	-614.5833740234376	-342.7205810546876	112.8932113647461	-698.8695678710939	-446.8979797363282	84.2857131958008	-677.6644287109376	-229.7163848876954	55.51767349243165	-613.3743896484376	-242.695541381836	58.84082412719728	-579.0534057617189	-273.2272033691407	42.92436599731446	-536.4893188476564	
978	4.885	7.68414878845215	1701.84912109375	-877.4417114257815	-133.4217224121094	1596.92333984375	-952.3944091796877	-143.0193328857422	1588.990234375	-807.6651000976565	-195.4862213134766	1506.898559570313	-888.9786376953127	-338.5856933593751	1192.01513671875	-890.703063964844	-48.24154663085939	1402.444458007813	-885.4380493164065	-61.03762435913087	1468.93017578125	-1058.728515625	-125.9409103393555	1365.56494140625	-1247.507568359375	-112.603500366211	1317.33984375	-1248.417846679688	-147.4915618896485	1323.648803710938	-1297.74951171875	-168.9037322998047	1262.566528320313	-1331.736206054688	-253.2174072265626	1280.913452148438	-1315.466796875	-286.7055053710938	1067.65673828125	-1115.187255859375	nan	nan	nan	-262.7435607910157	1011.544250488281	-1169.72119140625	-28.52112388610841	1462.071533203125	-721.1542358398439	-103.8078002929688	1340.334228515625	-535.2347412109376	-102.3247604370117	1292.137939453125	-547.4353027343751	-133.0347747802735	1289.199951171875	-496.6658325195314	-163.9388580322266	1227.566162109375	-473.4623107910157	-247.3231658935547	1258.880249023438	-480.5743713378907	-315.1339721679688	1041.633666992188	-654.0318603515626	-269.9735717773438	986.5393066406252	-619.9918823242189	-272.0467834472657	1026.751831054688	-708.8590087890626	nan	nan	nan	nan	nan	nan	-391.7332763671876	1109.737182617188	-893.8286743164065	-411.122528076172	1089.775268554688	-924.0147705078127	-417.6357421875001	1084.536010742188	-869.173278808594	-288.0608520507813	800.724060058594	-1132.788452148438	-230.1541748046876	741.0331420898439	-1152.939331054688	-186.0586700439453	756.7073364257814	-1145.52392578125	-238.2986450195313	680.2165527343751	-1154.432861328125	-158.9244384765625	546.9632568359376	-1167.022827148438	-144.676010131836	498.9907226562501	-1047.773193359375	-193.770980834961	314.9244384765626	-1140.0224609375	-240.7092742919922	297.9506530761719	-1213.126953125	-213.1934509277344	278.7239990234376	-1182.380981445313	-252.5283813476563	205.502182006836	-1163.503173828125	-355.2966003417969	127.8596496582032	-1222.800903320313	-421.2283325195314	81.95876312255861	-1175.080444335938	-205.3491668701172	54.21537017822267	-1177.8984375	-209.6125793457032	58.53260040283205	-1219.963745117188	-324.1181335449219	118.917465209961	-1137.33837890625	-266.4921875000001	690.7358398437501	-638.6361694335939	-206.7024078369141	657.5144042968751	-620.5243530273439	-175.4442749023438	671.5137939453126	-622.8795166015626	-200.6720123291016	575.7399291992189	-625.8639526367189	-182.5887451171875	513.8425292968751	-613.3920898437501	-138.6639556884766	485.6056518554689	-729.8245849609376	-174.7203979492188	369.5932617187501	-620.0167846679689	-269.4259643554688	324.6199951171876	-597.2510375976564	-229.1098022460938	302.6111145019532	-608.8168334960939	-239.1663970947266	258.1825561523438	-649.1595458984376	-382.0318908691407	125.3315200805664	-614.4034423828126	-341.7206115722657	114.2161483764649	-698.5703735351564	-446.4359436035157	85.8870086669922	-677.7274780273439	-229.4154357910157	55.36966705322267	-613.1710205078126	-242.414535522461	58.72705459594728	-578.9843750000001	-273.1268310546876	42.94743347167969	-536.4909667968751	
979	4.89	6.6566219329834	1713.574340820313	-877.1744384765627	-134.9676971435547	1609.31298828125	-952.315368652344	-144.8021240234375	1601.469360351563	-807.6013793945315	-197.9535827636719	1518.965698242188	-888.9089355468752	-338.4040222167969	1201.05029296875	-890.518737792969	-50.05636215209962	1415.756713867188	-885.2392578125002	-63.05630111694337	1482.439575195313	-1058.389282226563	-126.6897583007813	1378.478515625	-1247.352661132813	-113.2214965820313	1330.055541992188	-1247.709350585938	-147.8087310791016	1336.3076171875	-1297.4267578125	-169.2752075195313	1274.992065429688	-1331.091186523438	-253.9546508789063	1292.677001953125	-1314.936279296875	-283.6327514648438	1078.284790039063	-1114.862426757813	nan	nan	nan	-259.4525146484376	1022.596374511719	-1169.519775390625	-30.8761157989502	1476.708618164063	-721.1918945312501	-105.2400054931641	1354.26416015625	-535.3314819335939	-103.2234954833985	1306.182250976563	-547.4594116210939	-134.062744140625	1302.911376953125	-496.8084716796876	-164.5823211669922	1240.956665039063	-473.6827087402345	-248.2420806884766	1271.6796875	-481.0067749023439	-312.1175537109376	1053.3505859375	-654.1681518554689	-267.1804809570313	998.1983642578127	-619.4467773437501	-268.7745666503907	1037.401000976563	-708.3570556640626	nan	nan	nan	nan	nan	nan	-390.2508850097657	1117.98779296875	-893.4967041015627	-409.1517944335939	1097.640258789063	-923.9451904296877	-415.1414794921876	1092.320556640625	-869.1271972656252	-287.2002258300782	807.3137207031252	-1132.164672851563	-231.0453338623047	746.0438232421876	-1152.645629882813	-186.4655303955078	761.0076293945314	-1145.752685546875	-240.730453491211	685.4821166992189	-1153.205078125	-163.4020080566407	551.1194458007814	-1166.28466796875	-148.5752868652344	502.9125976562501	-1046.888671875	-196.0894775390626	318.5463256835938	-1139.392578125	-243.5276184082032	301.3719787597657	-1212.898559570313	-214.849349975586	282.2662658691407	-1182.12109375	-252.8430175781251	208.000961303711	-1163.306030273438	-355.4992675781251	129.5345764160157	-1222.7275390625	-420.4014892578126	83.86837768554689	-1175.004638671875	-204.9611053466797	53.99681854248048	-1177.958374023438	-209.3568878173829	58.59584808349611	-1220.06298828125	-323.6185607910157	120.4645156860352	-1137.50537109375	-267.9620056152344	696.1737670898439	-639.2985839843751	-209.1556396484376	661.6600341796876	-620.7758178710939	-177.5604248046875	675.1497802734376	-622.7163085937501	-204.5055236816407	580.2043457031251	-626.2322387695314	-186.6182861328125	517.6852416992189	-613.5192871093751	-142.3379974365235	489.5371398925782	-729.7141113281251	-177.458236694336	373.3562622070313	-619.9551391601564	-271.4722900390626	327.3649902343751	-597.1797485351564	-231.0303802490235	305.5986938476563	-608.7857666015626	-240.0837097167969	260.6188049316407	-648.6696777343751	-381.8069763183594	126.6637649536133	-614.3553466796876	-342.6985473632813	116.0580291748047	-698.8165283203126	-445.4602050781251	87.50148010253908	-677.7435913085939	-229.2022552490235	55.27455902099611	-613.0803833007814	-242.1029815673829	58.56670379638673	-578.8696899414064	-272.9857788085938	42.99115753173829	-536.4462890625001	
